<?xml version="1.0" encoding="UTF-8" standalone="no"?><!DOCTYPE svg PUBLIC "-//W3C//DTD SVG 1.1//EN" "http://www.w3.org/Graphics/SVG/1.1/DTD/svg11.dtd"><svg width="100%" height="100%" viewBox="0 0 5701 1436" version="1.1" xmlns="http://www.w3.org/2000/svg" xmlns:xlink="http://www.w3.org/1999/xlink" xml:space="preserve" xmlns:serif="http://www.serif.com/" style="fill-rule:evenodd;clip-rule:evenodd;stroke-linejoin:round;stroke-miterlimit:1.41421;"><g><path d="M945.428,22.229l197.321,344.584l201.538,-344.584l-398.859,0Z" style="fill:url(#_Linear1);"/><path d="M1528.22,346.554l-183.933,-324.325l-201.538,344.584l375.138,0.32l22.017,0.013l-11.684,-20.592Z" style="fill:url(#_Linear2);"/><path d="M1142.75,366.813l197.746,345.325l4.046,0l173.346,-345.005l-375.138,-0.32Z" style="fill:url(#_Linear3);"/><path d="M1539.9,367.146l-22.017,-0.013l-173.346,345.005l391.021,0l-195.658,-344.992Z" style="fill:url(#_Linear4);"/><path d="M947.224,1405.81l196.425,-345.542l202.429,343.625l-398.854,1.917Z" style="fill:url(#_Linear5);"/><path d="M1529.17,1078.72l-183.092,325.167l-202.429,-343.625l375.134,-2.083l22.016,-0.125l-11.629,20.666Z" style="fill:url(#_Linear6);"/><path d="M1143.65,1060.26l196.846,-346.25l4.05,-0.017l174.238,344.184l-375.134,2.083Z" style="fill:url(#_Linear7);"/><path d="M1540.8,1058.06l-22.016,0.125l-174.238,-344.184l391.017,-1.858l-194.763,345.917Z" style="fill:url(#_Linear8);"/><path d="M813.486,22.229l-197.321,344.584l-201.537,-344.584l398.858,0Z" style="fill:url(#_Linear9);"/><path d="M230.69,346.554l183.938,-324.325l201.537,344.584l-375.137,0.32l-22.017,0.013l11.679,-20.592Z" style="fill:url(#_Linear10);"/><path d="M616.165,366.813l-197.746,345.325l-4.045,0l-173.346,-345.005l375.137,-0.32Z" style="fill:url(#_Linear11);"/><path d="M219.011,367.146l22.017,-0.013l173.346,345.005l-391.022,0l195.659,-344.992Z" style="fill:url(#_Linear12);"/><path d="M811.69,1405.81l-196.425,-345.542l-202.429,343.625l398.854,1.917Z" style="fill:url(#_Linear13);"/><path d="M229.74,1078.72l183.096,325.167l202.429,-343.625l-375.133,-2.083l-22.017,-0.125l11.625,20.666Z" style="fill:url(#_Linear14);"/><path d="M615.265,1060.26l-196.85,-346.25l-4.046,-0.017l-174.237,344.184l375.133,2.083Z" style="fill:url(#_Linear15);"/><path d="M218.115,1058.06l22.017,0.125l174.237,-344.184l-391.017,-1.858l194.763,345.917Z" style="fill:url(#_Linear16);"/><path d="M1117.01,713.4l-113.791,-199.266l-115.271,199.266l229.062,0Z" style="fill:url(#_Linear17);"/><path d="M641.907,714.513l235.221,-1.113l-123.667,-195.341l-111.554,196.454Z" style="fill:url(#_Linear18);"/><path d="M753.461,518.059l249.755,-3.925l-123.755,-216.721l-126,220.646Z" style="fill:url(#_Linear19);"/><path d="M877.128,713.4l10.817,0l115.271,-199.266l-249.755,3.925l123.667,195.341Z" style="fill:url(#_Linear20);"/><path d="M641.907,714.805l113.942,199.166l115.117,-199.333l-229.059,0.167Z" style="fill:url(#_Linear21);"/><path d="M1117.01,713.325l-235.221,1.313l123.817,195.25l111.404,-196.563Z" style="fill:url(#_Linear22);"/><path d="M1005.6,909.888l-249.754,4.083l123.921,216.626l125.833,-220.709Z" style="fill:url(#_Linear23);"/><path d="M881.786,714.638l-10.82,0l-115.117,199.333l249.754,-4.083l-123.817,-195.25Z" style="fill:url(#_Linear24);"/><path d="M2004.63,796.513c10.821,17.375 26.183,26.042 46.125,26.042c19.941,0 34.871,-7.542 44.854,-22.625c9.958,-15.084 16.654,-43.709 20.079,-85.834l59.784,7.667c-5.13,58.083 -18.084,98.667 -38.867,121.75c-20.783,23.042 -50.546,34.583 -89.254,34.583c-38.73,0 -69.492,-13.958 -92.255,-41.875c-22.779,-27.875 -34.166,-79.125 -34.166,-153.746l0,-232.329c0,-74.6 11.387,-125.854 34.166,-153.758c22.763,-27.888 53.388,-41.859 91.821,-41.859c38.438,0 67.771,9.979 87.988,29.9c20.196,19.942 32.583,55.521 37.162,106.771l-62.37,15.383c-3.405,-36.437 -9.821,-61.645 -19.217,-75.595c-9.392,-13.955 -23.346,-20.942 -41.859,-20.942c-18.512,0 -33.17,8.983 -43.991,26.908c-10.821,17.946 -16.225,50.825 -16.225,98.671l0,264.796c0,46.675 5.404,78.717 16.225,96.092Z" style="fill:#fff;fill-rule:nonzero;"/><path d="M2449.66,865.263l0,-270.771l-128.987,0l0,270.771l-68.334,0l0,-597.917l68.334,0l0,272.488l128.987,0l0,-272.488l67.476,0l0,597.917l-67.476,0Z" style="fill:#fff;fill-rule:nonzero;"/><path d="M2796.45,464.667l0,-25.638c0,-43.837 -5.829,-74.304 -17.516,-91.391c-11.663,-17.084 -27.746,-25.634 -48.259,-25.634l-37.571,0l0,260.53l37.571,0c43.859,0 65.775,-39.296 65.775,-117.867Zm-171.683,400.596l0,-597.917l105.908,0c42.138,0 74.875,13.387 98.221,40.137c23.375,26.792 35.042,74.892 35.042,144.367l0,4.263c0,86.579 -21.083,141.529 -63.221,164.854l70.888,244.296l-70.03,0l-66.612,-228.913l-41.859,0l0,228.913l-68.337,0Z" style="fill:#fff;fill-rule:nonzero;"/><rect x="2954.44" y="267.346" width="68.379" height="597.921" style="fill:#fff;"/><path d="M3314.06,731.18c0,-45.571 -15.375,-80.584 -46.125,-105.084l-68.333,-50.392c-51.25,-36.437 -76.875,-90.254 -76.875,-161.45c0,-59.216 11.25,-100.646 33.75,-124.266c22.458,-23.638 53.25,-35.459 92.25,-35.459c39,0 69.333,10.975 90.958,32.896c21.625,21.917 34.75,61.646 39.292,119.158l-64.917,14.521c-2.25,-72.896 -23.5,-109.337 -63.625,-109.337c-40.166,0 -60.208,31.041 -60.208,93.096c0,27.337 2.958,49.55 8.958,66.633c5.959,17.083 17.5,32.467 34.584,46.125l67.5,50.392c15.916,11.408 28.75,22.212 38.416,32.466c9.667,10.255 18.959,26.634 27.75,49.121c8.834,22.504 13.25,49.121 13.25,79.871c0,54.667 -11.791,93.084 -35.416,115.292c-23.667,22.208 -55.667,33.333 -96.125,33.333c-40.417,0 -72.042,-13.083 -94.792,-39.291c-22.792,-26.209 -36.75,-72.917 -41.875,-140.084l64.083,-11.116c2.25,48.408 9.25,82.866 20.917,103.366c11.667,20.5 28.042,30.75 49.125,30.75c44.958,0 67.458,-30.166 67.458,-90.541Z" style="fill:#fff;fill-rule:nonzero;"/><path d="M3661.73,865.263l-68.333,0l0,-597.917l68.333,0l0,252.838l125.542,-252.838l68.333,0l-130.666,257.104l135.791,340.813l-68.333,0l-103.333,-269.05l-27.334,53.816l0,215.234Z" style="fill:#fff;fill-rule:nonzero;"/><path d="M4110.15,267.346l67.5,0l0,419.396c0,72.313 -11.541,122.313 -34.583,149.938c-23.083,27.625 -55.667,41.416 -97.833,41.416c-42.125,0 -74.709,-13.791 -97.792,-41.416c-23.042,-27.625 -34.584,-77.625 -34.584,-149.938l0,-419.396l67.459,0l0,432.213c0,46.121 5.708,78.162 17.125,96.121c11.333,17.916 27.167,26.875 47.375,26.875c20.208,0 36.167,-8.959 47.833,-26.875c11.667,-17.959 17.5,-50 17.5,-96.121l0,-432.213Z" style="fill:#fff;fill-rule:nonzero;"/><path d="M4307.9,810.18c6,9.416 14.084,14.083 24.375,14.083c21.625,0 32.459,-26.458 32.459,-79.417l0,-477.5l67.458,0l0,463.834c0,97.916 -34.458,146.916 -103.375,146.916c-22.75,0 -43.417,-8.708 -61.917,-26.083c-18.5,-17.333 -29.458,-46.5 -32.875,-87.542l61.5,-8.541c2.292,26.791 6.417,44.875 12.375,54.25Z" style="fill:#fff;fill-rule:nonzero;"/><path d="M4645.73,353.608l-51.25,301.53l101.667,0l-50.417,-301.53Zm86.292,511.655l-26.5,-155.446l-120.417,0l-25.625,155.446l-68.375,0l109.333,-597.917l90.584,0l109.333,597.917l-68.333,0Z" style="fill:#fff;fill-rule:nonzero;"/><path d="M5119.82,865.263l-70.917,-434.763l-70.875,434.763l-70.042,0l-89.708,-597.917l68.333,0l61.542,457.834l75.167,-457.834l52.958,0l72.583,457l62.376,-457l68.333,0l-89.709,597.917l-70.041,0Z" style="fill:#fff;fill-rule:nonzero;"/><path d="M5452.11,353.608l-51.25,301.53l101.625,0l-50.375,-301.53Zm86.25,511.655l-26.5,-155.446l-120.417,0l-25.625,155.446l-68.333,0l109.333,-597.917l90.542,0l109.333,597.917l-68.333,0Z" style="fill:#fff;fill-rule:nonzero;"/><path d="M2022.88,1169.18l-23.979,-147.042l-23.975,147.042l-23.68,0l-30.316,-202.25l23.108,0l20.783,154.833l25.438,-154.833l17.908,0l24.546,154.583l21.079,-154.583l23.113,0l-30.317,202.25l-23.708,0Z" style="fill:url(#_Linear25);"/><path d="M2175.7,1077.6l0,73.084l50.258,0l0,18.5l-73.366,0l0,-202.25l72.5,0l0,18.5l-49.392,0l0,73.666l45.054,0l0,18.5l-45.054,0Z" style="fill:url(#_Linear26);"/><path d="M2368.09,1116.89l0,-7.833c0,-24.042 -7.613,-36.084 -22.813,-36.084l-13.871,0l0,78.001l13.871,0c7.317,0 12.95,-2.5 16.879,-7.5c3.955,-5.042 5.934,-13.875 5.934,-26.584Zm-3.171,-93.042l0,-6.916c0,-12.125 -1.95,-20.459 -5.796,-25c-3.846,-4.5 -9.35,-6.792 -16.446,-6.792l-11.271,0l0,72.5l11.271,0c14.821,0 22.242,-11.25 22.242,-33.792Zm-56.621,145.334l0,-202.25l32.917,0c14.437,0 25.575,4.041 33.375,12.166c7.804,8.084 11.704,22.209 11.704,42.417c0,23.542 -8.208,38 -24.571,43.375c19.263,4.208 28.908,19.75 28.908,46.5c0,21.375 -3.954,36.334 -11.866,44.917c-7.884,8.583 -18.859,12.875 -32.917,12.875l-37.55,0Z" style="fill:url(#_Linear27);"/><path d="M2626.34,1109.68l0,-82.959c0,-27.5 -7.613,-41.291 -22.813,-41.291l-16.175,0l0,165.542l16.175,0c15.2,0 22.813,-13.792 22.813,-41.292Zm-62.1,59.5l0,-202.25l39.287,0c14.63,0 25.9,4.708 33.784,14c7.912,9.375 11.866,26.291 11.866,50.75l0,72.792c0,24.416 -3.954,41.333 -11.866,50.666c-7.884,9.375 -19.154,14.042 -33.784,14.042l-39.287,0Z" style="fill:url(#_Linear28);"/><path d="M2756.63,1077.6l0,73.084l50.258,0l0,18.5l-73.367,0l0,-202.25l72.5,0l0,18.5l-49.391,0l0,73.666l45.054,0l0,18.5l-45.054,0Z" style="fill:url(#_Linear29);"/><path d="M2951.31,1123.81c0,-15.417 -5.208,-27.25 -15.583,-35.542l-23.125,-17.042c-17.334,-12.291 -26,-30.5 -26,-54.583c0,-20.042 3.791,-34.042 11.416,-42.042c7.625,-7.958 18.042,-12 31.209,-12c13.166,0 23.458,3.709 30.75,11.125c7.333,7.417 11.75,20.834 13.333,40.292l-22,4.917c-0.75,-24.625 -7.917,-36.959 -21.5,-36.959c-13.583,0 -20.375,10.5 -20.375,31.5c0,9.209 1,16.75 3.042,22.542c2.041,5.75 5.916,10.958 11.708,15.583l22.792,17.042c5.375,3.875 9.75,7.5 13,11c3.291,3.458 6.416,8.958 9.416,16.583c2.959,7.626 4.459,16.626 4.459,27.001c0,18.5 -4,31.5 -12,39c-8,7.5 -18.834,11.291 -32.5,11.291c-13.667,0 -24.334,-4.416 -32.042,-13.333c-7.708,-8.833 -12.417,-24.625 -14.167,-47.333l21.667,-3.792c0.792,16.375 3.125,28.042 7.083,34.958c3.917,6.959 9.5,10.417 16.625,10.417c15.167,0 22.792,-10.208 22.792,-30.625Z" style="fill:url(#_Linear30);"/><rect x="3056.19" y="966.93" width="23.125" height="202.25" style="fill:url(#_Linear31);"/><path d="M3205.81,1080.47l0,-18.5l45.375,0l0,106.876l-14.166,0l-4.042,-18.75c-5.792,15.583 -16.167,23.416 -31.167,23.416c-12.166,0 -21.541,-4.666 -28.208,-14c-6.625,-9.375 -9.958,-26.291 -9.958,-50.708l0,-80.042c0,-25.208 3.875,-42.542 11.583,-52c7.667,-9.458 18.042,-14.167 31.042,-14.167c13,0 22.916,3.417 29.75,10.125c6.833,6.75 11,18.75 12.541,36.125l-21.041,5.167c-1.167,-12.292 -3.334,-20.833 -6.5,-25.542c-3.209,-4.75 -7.917,-7.083 -14.167,-7.083c-6.292,0 -11.25,3.042 -14.917,9.083c-3.625,6.084 -5.458,17.209 -5.458,33.375l0,89.251c0,15.791 1.75,26.708 5.333,32.666c3.584,5.959 8.625,8.959 15.167,8.959c14.625,0 22.167,-13 22.542,-39l0,-35.251l-23.709,0Z" style="fill:url(#_Linear32);"/><path d="M3360.06,1169.18l-22.5,0l0,-202.25l23.959,0l47.083,147.917l0,-147.917l22.542,0l0,202.25l-24,0l-47.084,-147.667l0,147.667Z" style="fill:url(#_Linear33);"/><path d="M3645.19,1154.72c11,0 19.083,-6.459 24.291,-19.375l-29.208,-53.126c-10.375,5.75 -15.583,15.875 -15.583,30.334l0,9.542c0,12.5 1.833,21.041 5.5,25.708c3.666,4.625 8.666,6.917 15,6.917Zm-42.75,-32.959l0,-9.208c0,-13.709 2.458,-24.084 7.375,-31.209c4.916,-7.125 12,-12.416 21.25,-15.875c-9.25,-16.583 -13.875,-34.666 -13.875,-54.333c0,-32.375 13.375,-48.542 40.125,-48.542c11.958,0 21.291,3.917 28.041,11.709c6.75,7.791 11,21.5 12.709,41.166l-20.5,3.209c-0.959,-14.459 -3,-24.292 -6.042,-29.5c-3.125,-5.209 -7.708,-7.792 -13.75,-7.792c-6.083,0 -10.667,2.167 -13.875,6.5c-3.167,4.333 -4.75,12.958 -4.75,25.875c0,12.875 3.75,26.375 11.25,40.417l26.875,49.708c1.917,-12.542 3.292,-25.917 4.042,-40.167l19.083,0c-2.125,28.292 -5.333,49.876 -9.542,64.709l22.25,40.75l-24.875,0l-8.375,-15.333c-8.458,13.083 -21.166,19.666 -38.125,19.666c-12.125,0 -21.708,-3.791 -28.75,-11.291c-7,-7.5 -10.541,-21 -10.541,-40.459Z" style="fill:url(#_Linear34);"/><path d="M3942.44,1109.68l0,-82.959c0,-27.5 -7.584,-41.291 -22.792,-41.291l-16.167,0l0,165.542l16.167,0c15.208,0 22.792,-13.792 22.792,-41.292Zm-62.084,59.5l0,-202.25l39.292,0c14.625,0 25.917,4.708 33.792,14c7.917,9.375 11.875,26.291 11.875,50.75l0,72.792c0,24.416 -3.958,41.333 -11.875,50.666c-7.875,9.375 -19.167,14.042 -33.792,14.042l-39.292,0Z" style="fill:url(#_Linear35);"/><path d="M4072.73,1077.6l0,73.084l50.291,0l0,18.5l-73.375,0l0,-202.25l72.5,0l0,18.5l-49.416,0l0,73.666l45.083,0l0,18.5l-45.083,0Z" style="fill:url(#_Linear36);"/><path d="M4214.86,966.93l28.916,168.708l28.875,-168.708l23.084,0l-37.542,202.25l-28.875,0l-37.542,-202.25l23.084,0Z" style="fill:url(#_Linear37);"/><path d="M4393.69,1077.6l0,73.084l50.25,0l0,18.5l-73.375,0l0,-202.25l72.5,0l0,18.5l-49.375,0l0,73.666l45.042,0l0,18.5l-45.042,0Z" style="fill:url(#_Linear38);"/><path d="M4526.31,1169.18l0,-202.25l23.084,0l0,183.75l44.791,0l0,18.5l-67.875,0Z" style="fill:url(#_Linear39);"/><path d="M4732.27,1113.1l0,-90.084c0,-27.75 -7.417,-41.625 -22.292,-41.625c-7.125,0 -12.625,3 -16.583,8.958c-3.917,5.959 -5.917,16.875 -5.917,32.667l0,90.084c0,15.791 2,26.708 5.917,32.666c3.958,5.959 9.458,8.959 16.583,8.959c14.875,0 22.292,-13.875 22.292,-41.625Zm22.791,-85.751l0,81.459c0,24.417 -3.875,41.333 -11.708,50.708c-7.792,9.334 -18.958,14 -33.5,14c-14.542,0 -25.708,-4.666 -33.5,-14c-7.792,-9.375 -11.708,-26.291 -11.708,-50.708l0,-81.459c0,-24.458 3.916,-41.375 11.708,-50.75c7.792,-9.291 18.958,-14 33.5,-14c14.542,0 25.708,4.709 33.5,14c7.833,9.375 11.708,26.292 11.708,50.75Z" style="fill:url(#_Linear40);"/><path d="M4897.52,1036.89l0,-9c0,-28.292 -7.458,-42.458 -22.25,-42.458l-12.708,0l0,93.875l12.708,0c14.792,0 22.25,-14.167 22.25,-42.417Zm-58.083,132.292l0,-202.25l35.833,0c14.417,0 25.583,4.708 33.333,14c7.792,9.375 11.709,26.291 11.709,50.75l0,1.416c0,24.459 -3.917,41.334 -11.709,50.542c-7.75,9.25 -18.916,13.875 -33.333,13.875l-12.708,0l0,71.667l-23.125,0Z" style="fill:url(#_Linear41);"/><path d="M5018.82,1169.18l-22.542,0l0,-202.25l35.25,0l24.542,140.125l24.875,-140.125l35.25,0l0,202.25l-22.542,0l0,-182.584l-24.542,139.251l-25.75,0l-24.541,-139.251l0,182.584Z" style="fill:url(#_Linear42);"/><path d="M5227.69,1077.6l0,73.084l50.25,0l0,18.5l-73.375,0l0,-202.25l72.5,0l0,18.5l-49.375,0l0,73.666l45.042,0l0,18.5l-45.042,0Z" style="fill:url(#_Linear43);"/><path d="M5382.82,1169.18l-22.542,0l0,-202.25l24,0l47.084,147.917l0,-147.917l22.5,0l0,202.25l-23.959,0l-47.083,-147.667l0,147.667Z" style="fill:url(#_Linear44);"/><path d="M5527.82,985.43l0,-18.5l78.875,0l0,18.5l-28.042,0l0,183.75l-22.833,0l0,-183.75l-28,0Z" style="fill:url(#_Linear45);"/></g><defs><linearGradient id="_Linear1" x1="0" y1="0" x2="1" y2="0" gradientUnits="userSpaceOnUse" gradientTransform="matrix(398.858,0,0,398.858,945.428,194.521)"><stop offset="0" style="stop-color:#f15a29;stop-opacity:1"/><stop offset="1" style="stop-color:#ed1c24;stop-opacity:1"/></linearGradient><linearGradient id="_Linear2" x1="0" y1="0" x2="1" y2="0" gradientUnits="userSpaceOnUse" gradientTransform="matrix(397.154,0,0,397.154,1142.75,194.687)"><stop offset="0" style="stop-color:#1375bc;stop-opacity:1"/><stop offset="1" style="stop-color:#2a3890;stop-opacity:1"/></linearGradient><linearGradient id="_Linear3" x1="0" y1="0" x2="1" y2="0" gradientUnits="userSpaceOnUse" gradientTransform="matrix(375.137,0,0,375.137,1142.75,539.475)"><stop offset="0" style="stop-color:#1375bc;stop-opacity:1"/><stop offset="1" style="stop-color:#27aae1;stop-opacity:1"/></linearGradient><linearGradient id="_Linear4" x1="0" y1="0" x2="1" y2="0" gradientUnits="userSpaceOnUse" gradientTransform="matrix(391.019,0,0,391.019,1344.54,539.634)"><stop offset="0" style="stop-color:#2bb673;stop-opacity:1"/><stop offset="1" style="stop-color:#08a79e;stop-opacity:1"/></linearGradient><linearGradient id="_Linear5" x1="0" y1="0" x2="1" y2="0" gradientUnits="userSpaceOnUse" gradientTransform="matrix(398.856,0,0,398.856,947.224,1233.05)"><stop offset="0" style="stop-color:#f15a29;stop-opacity:1"/><stop offset="1" style="stop-color:#ed1c24;stop-opacity:1"/></linearGradient><linearGradient id="_Linear6" x1="0" y1="0" x2="1" y2="0" gradientUnits="userSpaceOnUse" gradientTransform="matrix(397.151,0,0,397.151,1143.65,1230.97)"><stop offset="0" style="stop-color:#8cc63f;stop-opacity:1"/><stop offset="1" style="stop-color:#8cc63f;stop-opacity:1"/></linearGradient><linearGradient id="_Linear7" x1="0" y1="0" x2="1" y2="0" gradientUnits="userSpaceOnUse" gradientTransform="matrix(375.134,0,0,375.134,1143.65,887.138)"><stop offset="0" style="stop-color:#8dc73f;stop-opacity:1"/><stop offset="1" style="stop-color:#066839;stop-opacity:1"/></linearGradient><linearGradient id="_Linear8" x1="0" y1="0" x2="1" y2="0" gradientUnits="userSpaceOnUse" gradientTransform="matrix(391.017,0,0,391.017,1344.55,885.18)"><stop offset="0" style="stop-color:#f15a29;stop-opacity:1"/><stop offset="1" style="stop-color:#fbb040;stop-opacity:1"/></linearGradient><linearGradient id="_Linear9" x1="0" y1="0" x2="1" y2="0" gradientUnits="userSpaceOnUse" gradientTransform="matrix(-398.858,1.79076e-08,-1.79076e-08,-398.858,813.486,194.521)"><stop offset="0" style="stop-color:#f15a29;stop-opacity:1"/><stop offset="1" style="stop-color:#ed1c24;stop-opacity:1"/></linearGradient><linearGradient id="_Linear10" x1="0" y1="0" x2="1" y2="0" gradientUnits="userSpaceOnUse" gradientTransform="matrix(-397.154,1.78309e-08,-1.78309e-08,-397.154,616.165,194.687)"><stop offset="0" style="stop-color:#1375bc;stop-opacity:1"/><stop offset="1" style="stop-color:#2a3890;stop-opacity:1"/></linearGradient><linearGradient id="_Linear11" x1="0" y1="0" x2="1" y2="0" gradientUnits="userSpaceOnUse" gradientTransform="matrix(-375.137,1.68427e-08,-1.68427e-08,-375.137,616.165,539.475)"><stop offset="0" style="stop-color:#1375bc;stop-opacity:1"/><stop offset="1" style="stop-color:#27aae1;stop-opacity:1"/></linearGradient><linearGradient id="_Linear12" x1="0" y1="0" x2="1" y2="0" gradientUnits="userSpaceOnUse" gradientTransform="matrix(-391.019,1.75556e-08,-1.75556e-08,-391.019,414.374,539.634)"><stop offset="0" style="stop-color:#2bb673;stop-opacity:1"/><stop offset="1" style="stop-color:#08a79e;stop-opacity:1"/></linearGradient><linearGradient id="_Linear13" x1="0" y1="0" x2="1" y2="0" gradientUnits="userSpaceOnUse" gradientTransform="matrix(-398.856,1.79076e-08,-1.79076e-08,-398.856,811.69,1233.05)"><stop offset="0" style="stop-color:#f15a29;stop-opacity:1"/><stop offset="1" style="stop-color:#ed1c24;stop-opacity:1"/></linearGradient><linearGradient id="_Linear14" x1="0" y1="0" x2="1" y2="0" gradientUnits="userSpaceOnUse" gradientTransform="matrix(-397.151,1.78309e-08,-1.78309e-08,-397.151,615.265,1230.97)"><stop offset="0" style="stop-color:#8cc63f;stop-opacity:1"/><stop offset="1" style="stop-color:#8cc63f;stop-opacity:1"/></linearGradient><linearGradient id="_Linear15" x1="0" y1="0" x2="1" y2="0" gradientUnits="userSpaceOnUse" gradientTransform="matrix(-375.134,1.68427e-08,-1.68427e-08,-375.134,615.265,887.138)"><stop offset="0" style="stop-color:#8dc73f;stop-opacity:1"/><stop offset="1" style="stop-color:#066839;stop-opacity:1"/></linearGradient><linearGradient id="_Linear16" x1="0" y1="0" x2="1" y2="0" gradientUnits="userSpaceOnUse" gradientTransform="matrix(-391.017,1.75552e-08,-1.75552e-08,-391.017,414.369,885.18)"><stop offset="0" style="stop-color:#f15a29;stop-opacity:1"/><stop offset="1" style="stop-color:#fbb040;stop-opacity:1"/></linearGradient><linearGradient id="_Linear17" x1="0" y1="0" x2="1" y2="0" gradientUnits="userSpaceOnUse" gradientTransform="matrix(-475.1,-2.13273e-08,2.13273e-08,-475.1,1117.01,613.767)"><stop offset="0" style="stop-color:#1375bc;stop-opacity:1"/><stop offset="1" style="stop-color:#00aeef;stop-opacity:1"/></linearGradient><linearGradient id="_Linear18" x1="0" y1="0" x2="1" y2="0" gradientUnits="userSpaceOnUse" gradientTransform="matrix(-475.1,-2.13273e-08,2.13273e-08,-475.1,1117.01,616.288)"><stop offset="0" style="stop-color:#662c91;stop-opacity:1"/><stop offset="1" style="stop-color:#91268f;stop-opacity:1"/></linearGradient><linearGradient id="_Linear19" x1="0" y1="0" x2="1" y2="0" gradientUnits="userSpaceOnUse" gradientTransform="matrix(-475.1,-2.13273e-08,2.13273e-08,-475.1,1117.01,407.733)"><stop offset="0" style="stop-color:#d91b5b;stop-opacity:1"/><stop offset="1" style="stop-color:#ee287c;stop-opacity:1"/></linearGradient><linearGradient id="_Linear20" x1="0" y1="0" x2="1" y2="0" gradientUnits="userSpaceOnUse" gradientTransform="matrix(-475.1,-2.13273e-08,2.13273e-08,-475.1,1117.01,613.767)"><stop offset="0" style="stop-color:#9f1e63;stop-opacity:1"/><stop offset="1" style="stop-color:#da1b5c;stop-opacity:1"/></linearGradient><linearGradient id="_Linear21" x1="0" y1="0" x2="1" y2="0" gradientUnits="userSpaceOnUse" gradientTransform="matrix(475.1,-0.360543,0.360543,475.1,641.982,814.43)"><stop offset="0" style="stop-color:#1375bc;stop-opacity:1"/><stop offset="1" style="stop-color:#00aeef;stop-opacity:1"/></linearGradient><linearGradient id="_Linear22" x1="0" y1="0" x2="1" y2="0" gradientUnits="userSpaceOnUse" gradientTransform="matrix(475.1,-0.360543,0.360543,475.1,641.982,811.93)"><stop offset="0" style="stop-color:#662c91;stop-opacity:1"/><stop offset="1" style="stop-color:#91268f;stop-opacity:1"/></linearGradient><linearGradient id="_Linear23" x1="0" y1="0" x2="1" y2="0" gradientUnits="userSpaceOnUse" gradientTransform="matrix(475.1,-0.360543,0.360543,475.1,642.14,1020.47)"><stop offset="0" style="stop-color:#d91b5b;stop-opacity:1"/><stop offset="1" style="stop-color:#ee287c;stop-opacity:1"/></linearGradient><linearGradient id="_Linear24" x1="0" y1="0" x2="1" y2="0" gradientUnits="userSpaceOnUse" gradientTransform="matrix(475.1,-0.360543,0.360543,475.1,641.982,814.43)"><stop offset="0" style="stop-color:#9f1e63;stop-opacity:1"/><stop offset="1" style="stop-color:#da1b5c;stop-opacity:1"/></linearGradient><linearGradient id="_Linear25" x1="0" y1="0" x2="1" y2="0" gradientUnits="userSpaceOnUse" gradientTransform="matrix(1.23825e-14,-202.221,202.221,1.23825e-14,1998.91,1169.18)"><stop offset="0" style="stop-color:#ed1c24;stop-opacity:1"/><stop offset="1" style="stop-color:#f15a29;stop-opacity:1"/></linearGradient><linearGradient id="_Linear26" x1="0" y1="0" x2="1" y2="0" gradientUnits="userSpaceOnUse" gradientTransform="matrix(1.23825e-14,-202.221,202.221,1.23825e-14,2189.28,1169.18)"><stop offset="0" style="stop-color:#ed1c24;stop-opacity:1"/><stop offset="1" style="stop-color:#f15a29;stop-opacity:1"/></linearGradient><linearGradient id="_Linear27" x1="0" y1="0" x2="1" y2="0" gradientUnits="userSpaceOnUse" gradientTransform="matrix(1.23825e-14,-202.221,202.221,1.23825e-14,2349.47,1169.18)"><stop offset="0" style="stop-color:#ed1c24;stop-opacity:1"/><stop offset="1" style="stop-color:#f15a29;stop-opacity:1"/></linearGradient><linearGradient id="_Linear28" x1="0" y1="0" x2="1" y2="0" gradientUnits="userSpaceOnUse" gradientTransform="matrix(1.23825e-14,-202.221,202.221,1.23825e-14,2606.71,1169.18)"><stop offset="0" style="stop-color:#ed1c24;stop-opacity:1"/><stop offset="1" style="stop-color:#f15a29;stop-opacity:1"/></linearGradient><linearGradient id="_Linear29" x1="0" y1="0" x2="1" y2="0" gradientUnits="userSpaceOnUse" gradientTransform="matrix(1.23825e-14,-202.221,202.221,1.23825e-14,2770.2,1169.18)"><stop offset="0" style="stop-color:#ed1c24;stop-opacity:1"/><stop offset="1" style="stop-color:#f15a29;stop-opacity:1"/></linearGradient><linearGradient id="_Linear30" x1="0" y1="0" x2="1" y2="0" gradientUnits="userSpaceOnUse" gradientTransform="matrix(1.29133e-14,-210.891,210.891,1.29133e-14,2928.52,1173.51)"><stop offset="0" style="stop-color:#ed1c24;stop-opacity:1"/><stop offset="1" style="stop-color:#f15a29;stop-opacity:1"/></linearGradient><linearGradient id="_Linear31" x1="0" y1="0" x2="1" y2="0" gradientUnits="userSpaceOnUse" gradientTransform="matrix(1.23825e-14,-202.221,202.221,1.23825e-14,3067.77,1169.18)"><stop offset="0" style="stop-color:#ed1c24;stop-opacity:1"/><stop offset="1" style="stop-color:#f15a29;stop-opacity:1"/></linearGradient><linearGradient id="_Linear32" x1="0" y1="0" x2="1" y2="0" gradientUnits="userSpaceOnUse" gradientTransform="matrix(1.29133e-14,-210.891,210.891,1.29133e-14,3207.4,1173.51)"><stop offset="0" style="stop-color:#ed1c24;stop-opacity:1"/><stop offset="1" style="stop-color:#f15a29;stop-opacity:1"/></linearGradient><linearGradient id="_Linear33" x1="0" y1="0" x2="1" y2="0" gradientUnits="userSpaceOnUse" gradientTransform="matrix(1.23825e-14,-202.221,202.221,1.23825e-14,3384.36,1169.18)"><stop offset="0" style="stop-color:#ed1c24;stop-opacity:1"/><stop offset="1" style="stop-color:#f15a29;stop-opacity:1"/></linearGradient><linearGradient id="_Linear34" x1="0" y1="0" x2="1" y2="0" gradientUnits="userSpaceOnUse" gradientTransform="matrix(1.29133e-14,-210.891,210.891,1.29133e-14,3657.77,1173.51)"><stop offset="0" style="stop-color:#ed1c24;stop-opacity:1"/><stop offset="1" style="stop-color:#f15a29;stop-opacity:1"/></linearGradient><linearGradient id="_Linear35" x1="0" y1="0" x2="1" y2="0" gradientUnits="userSpaceOnUse" gradientTransform="matrix(1.23825e-14,-202.221,202.221,1.23825e-14,3922.81,1169.18)"><stop offset="0" style="stop-color:#ed1c24;stop-opacity:1"/><stop offset="1" style="stop-color:#f15a29;stop-opacity:1"/></linearGradient><linearGradient id="_Linear36" x1="0" y1="0" x2="1" y2="0" gradientUnits="userSpaceOnUse" gradientTransform="matrix(1.23825e-14,-202.221,202.221,1.23825e-14,4086.31,1169.18)"><stop offset="0" style="stop-color:#ed1c24;stop-opacity:1"/><stop offset="1" style="stop-color:#f15a29;stop-opacity:1"/></linearGradient><linearGradient id="_Linear37" x1="0" y1="0" x2="1" y2="0" gradientUnits="userSpaceOnUse" gradientTransform="matrix(1.23825e-14,-202.221,202.221,1.23825e-14,4243.77,1169.18)"><stop offset="0" style="stop-color:#ed1c24;stop-opacity:1"/><stop offset="1" style="stop-color:#f15a29;stop-opacity:1"/></linearGradient><linearGradient id="_Linear38" x1="0" y1="0" x2="1" y2="0" gradientUnits="userSpaceOnUse" gradientTransform="matrix(1.23825e-14,-202.221,202.221,1.23825e-14,4407.27,1169.18)"><stop offset="0" style="stop-color:#ed1c24;stop-opacity:1"/><stop offset="1" style="stop-color:#f15a29;stop-opacity:1"/></linearGradient><linearGradient id="_Linear39" x1="0" y1="0" x2="1" y2="0" gradientUnits="userSpaceOnUse" gradientTransform="matrix(1.23825e-14,-202.221,202.221,1.23825e-14,4560.23,1169.18)"><stop offset="0" style="stop-color:#ed1c24;stop-opacity:1"/><stop offset="1" style="stop-color:#f15a29;stop-opacity:1"/></linearGradient><linearGradient id="_Linear40" x1="0" y1="0" x2="1" y2="0" gradientUnits="userSpaceOnUse" gradientTransform="matrix(1.29133e-14,-210.891,210.891,1.29133e-14,4709.86,1173.51)"><stop offset="0" style="stop-color:#ed1c24;stop-opacity:1"/><stop offset="1" style="stop-color:#f15a29;stop-opacity:1"/></linearGradient><linearGradient id="_Linear41" x1="0" y1="0" x2="1" y2="0" gradientUnits="userSpaceOnUse" gradientTransform="matrix(1.23825e-14,-202.221,202.221,1.23825e-14,4879.9,1169.18)"><stop offset="0" style="stop-color:#ed1c24;stop-opacity:1"/><stop offset="1" style="stop-color:#f15a29;stop-opacity:1"/></linearGradient><linearGradient id="_Linear42" x1="0" y1="0" x2="1" y2="0" gradientUnits="userSpaceOnUse" gradientTransform="matrix(1.23825e-14,-202.221,202.221,1.23825e-14,5056.23,1169.18)"><stop offset="0" style="stop-color:#ed1c24;stop-opacity:1"/><stop offset="1" style="stop-color:#f15a29;stop-opacity:1"/></linearGradient><linearGradient id="_Linear43" x1="0" y1="0" x2="1" y2="0" gradientUnits="userSpaceOnUse" gradientTransform="matrix(1.23825e-14,-202.221,202.221,1.23825e-14,5241.27,1169.18)"><stop offset="0" style="stop-color:#ed1c24;stop-opacity:1"/><stop offset="1" style="stop-color:#f15a29;stop-opacity:1"/></linearGradient><linearGradient id="_Linear44" x1="0" y1="0" x2="1" y2="0" gradientUnits="userSpaceOnUse" gradientTransform="matrix(1.23825e-14,-202.221,202.221,1.23825e-14,5407.07,1169.18)"><stop offset="0" style="stop-color:#ed1c24;stop-opacity:1"/><stop offset="1" style="stop-color:#f15a29;stop-opacity:1"/></linearGradient><linearGradient id="_Linear45" x1="0" y1="0" x2="1" y2="0" gradientUnits="userSpaceOnUse" gradientTransform="matrix(1.23825e-14,-202.221,202.221,1.23825e-14,5567.27,1169.18)"><stop offset="0" style="stop-color:#ed1c24;stop-opacity:1"/><stop offset="1" style="stop-color:#f15a29;stop-opacity:1"/></linearGradient></defs></svg>